<?xml version="1.0" encoding="UTF-8"?>
<svg width="80px" height="63px" viewBox="0 0 80 63" version="1.1" xmlns="http://www.w3.org/2000/svg" xmlns:xlink="http://www.w3.org/1999/xlink">
    <!-- Generator: Sketch 46.2 (44496) - http://www.bohemiancoding.com/sketch -->
    <title>Image/Large</title>
    <desc>Created with Sketch.</desc>
    <defs></defs>
    <g id="Symbols" stroke="none" stroke-width="1" fill="none" fill-rule="evenodd">
        <g id="Image/Large" fill="#CECECE">
            <path d="M77.4173776,0 L2.58262239,0 C1.15632613,0 0,1.1465972 0,2.56165594 L0,60.4383441 C0,61.8534028 1.15632613,63 2.58262239,63 L77.4173776,63 C78.8436739,63 80,61.8534028 80,60.4383441 L80,2.56165594 C80,1.14693875 78.8436739,0 77.4173776,0 L77.4173776,0 Z M75,5 L75,54 L54.2427418,32.152707 C53.7524837,31.6366508 53.068475,31.3438651 52.3529819,31.3438651 L52.3526359,31.3438651 C51.6371428,31.3438651 50.9534801,31.6366508 50.462876,32.1520221 L41.5987881,41.4756204 L29.7146133,25.9661963 C29.2240093,25.3258346 28.4590405,24.9498361 27.6470181,24.9498361 L27.6449422,24.9498361 C26.8322278,24.950521 26.0669131,25.3278892 25.577001,25.9696207 L5,52.9158368 L5,5 L75,5 L75,5 Z M72,58 L8,58 L27.9855464,32 L39.6773841,47.158059 C40.1398985,47.7576997 40.8471919,48.1262112 41.6113462,48.1660963 C42.3744603,48.2035952 43.1188519,47.9131495 43.6430812,47.3649845 L52.7387359,37.8610707 L72,58 Z M53.9995858,15 C56.2056539,15 58,16.7947603 58,19.0004142 C58,21.2056539 56.2056539,23 53.9995858,23 C51.7939319,23 50,21.2056539 50,19.0004142 C50,16.7947603 51.7943461,15 53.9995858,15 Z"></path>
        </g>
    </g>
</svg>